<svg width="403" height="82" viewBox="0 0 403 82" fill="none" xmlns="http://www.w3.org/2000/svg">
<path d="M71.6916 52.9194C69.6383 52.9194 67.9223 52.4794 66.5436 51.5994C65.1943 50.7194 64.1676 49.5021 63.4636 47.9474C62.7596 46.3928 62.349 44.5888 62.2316 42.5354L66.6316 41.3474C66.7196 42.6088 66.9103 43.8261 67.2036 44.9994C67.5263 46.1728 68.0396 47.1408 68.7436 47.9034C69.4476 48.6368 70.4303 49.0034 71.6916 49.0034C72.9823 49.0034 73.9503 48.6514 74.5956 47.9474C75.2703 47.2141 75.6076 46.1728 75.6076 44.8234C75.6076 43.2101 75.241 41.9194 74.5076 40.9514C73.7743 39.9541 72.8503 38.9568 71.7356 37.9594L65.7516 32.6794C64.5783 31.6528 63.713 30.5381 63.1556 29.3354C62.5983 28.1034 62.3196 26.5928 62.3196 24.8034C62.3196 22.1928 63.0676 20.1688 64.5636 18.7314C66.0596 17.2941 68.0983 16.5754 70.6796 16.5754C72.0876 16.5754 73.3196 16.7661 74.3756 17.1474C75.461 17.4994 76.3556 18.0568 77.0596 18.8194C77.793 19.5821 78.365 20.5501 78.7756 21.7234C79.2156 22.8674 79.509 24.2168 79.6556 25.7714L75.4316 26.9154C75.3436 25.7421 75.1676 24.6714 74.9036 23.7034C74.6396 22.7061 74.1703 21.9141 73.4956 21.3274C72.8503 20.7114 71.9116 20.4034 70.6796 20.4034C69.4476 20.4034 68.4796 20.7408 67.7756 21.4154C67.101 22.0608 66.7636 23.0288 66.7636 24.3194C66.7636 25.4048 66.9396 26.2994 67.2916 27.0034C67.673 27.7074 68.2743 28.4261 69.0956 29.1594L75.1236 34.4394C76.473 35.6128 77.661 37.0208 78.6876 38.6634C79.7143 40.2768 80.2276 42.1981 80.2276 44.4274C80.2276 46.1874 79.861 47.7128 79.1276 49.0034C78.3943 50.2648 77.3823 51.2328 76.0916 51.9074C74.8303 52.5821 73.3636 52.9194 71.6916 52.9194ZM84.0845 52.5234V16.8834H89.0565V32.2834H98.2085V16.8834H103.181V52.5234H98.2085V35.8474H89.0565V52.5234H84.0845ZM106.813 52.5234L114.381 16.8834H119.177L126.789 52.5234H122.081L120.453 43.5474H113.193L111.477 52.5234H106.813ZM113.853 39.9834H119.793L116.801 23.9234L113.853 39.9834ZM130.405 52.5234V16.8834H135.377V33.6914L143.561 16.8834H148.181L141.141 32.5914L149.325 52.5234H144.485L137.665 35.8034L135.377 39.9394V52.5234H130.405ZM152.19 52.5234V16.8834H166.006V20.5794H157.162V32.3714H164.334V35.8914H157.162V48.9594H166.094V52.5234H152.19ZM170.108 52.5234V16.8834H173.496L183.616 40.5554V16.8834H187.752V52.5234H184.584L174.332 28.1914V52.5234H170.108ZM212.517 52.9194C210.111 52.9194 208.19 52.4501 206.753 51.5114C205.315 50.5728 204.289 49.2381 203.673 47.5074C203.057 45.7474 202.749 43.6941 202.749 41.3474V27.8394C202.749 25.4928 203.057 23.4834 203.673 21.8114C204.318 20.1101 205.345 18.8194 206.753 17.9394C208.19 17.0301 210.111 16.5754 212.517 16.5754C214.922 16.5754 216.829 17.0301 218.237 17.9394C219.645 18.8488 220.657 20.1394 221.273 21.8114C221.918 23.4834 222.241 25.4928 222.241 27.8394V41.3914C222.241 43.7088 221.918 45.7328 221.273 47.4634C220.657 49.1941 219.645 50.5434 218.237 51.5114C216.829 52.4501 214.922 52.9194 212.517 52.9194ZM212.517 49.0034C213.837 49.0034 214.834 48.7394 215.509 48.2114C216.183 47.6541 216.638 46.8914 216.873 45.9234C217.107 44.9261 217.225 43.7674 217.225 42.4474V26.8274C217.225 25.5074 217.107 24.3781 216.873 23.4394C216.638 22.4714 216.183 21.7381 215.509 21.2394C214.834 20.7114 213.837 20.4474 212.517 20.4474C211.197 20.4474 210.185 20.7114 209.481 21.2394C208.806 21.7381 208.351 22.4714 208.117 23.4394C207.882 24.3781 207.765 25.5074 207.765 26.8274V42.4474C207.765 43.7674 207.882 44.9261 208.117 45.9234C208.351 46.8914 208.806 47.6541 209.481 48.2114C210.185 48.7394 211.197 49.0034 212.517 49.0034ZM227.127 52.5234V16.8834H234.299C236.675 16.8834 238.641 17.2061 240.195 17.8514C241.75 18.4674 242.894 19.4794 243.627 20.8874C244.39 22.2661 244.771 24.0848 244.771 26.3434C244.771 27.7221 244.625 28.9834 244.331 30.1274C244.038 31.2421 243.569 32.1954 242.923 32.9874C242.278 33.7501 241.427 34.3074 240.371 34.6594L245.431 52.5234H240.635L235.971 35.8034H232.099V52.5234H227.127ZM232.099 32.2394H233.991C235.399 32.2394 236.543 32.0634 237.423 31.7114C238.303 31.3594 238.949 30.7581 239.359 29.9074C239.77 29.0568 239.975 27.8688 239.975 26.3434C239.975 24.2608 239.594 22.7648 238.831 21.8554C238.069 20.9168 236.558 20.4474 234.299 20.4474H232.099V32.2394ZM268.403 52.9194C266.349 52.9194 264.633 52.4794 263.255 51.5994C261.905 50.7194 260.879 49.5021 260.175 47.9474C259.471 46.3928 259.06 44.5888 258.943 42.5354L263.343 41.3474C263.431 42.6088 263.621 43.8261 263.915 44.9994C264.237 46.1728 264.751 47.1408 265.455 47.9034C266.159 48.6368 267.141 49.0034 268.403 49.0034C269.693 49.0034 270.661 48.6514 271.307 47.9474C271.981 47.2141 272.319 46.1728 272.319 44.8234C272.319 43.2101 271.952 41.9194 271.219 40.9514C270.485 39.9541 269.561 38.9568 268.447 37.9594L262.463 32.6794C261.289 31.6528 260.424 30.5381 259.867 29.3354C259.309 28.1034 259.031 26.5928 259.031 24.8034C259.031 22.1928 259.779 20.1688 261.275 18.7314C262.771 17.2941 264.809 16.5754 267.391 16.5754C268.799 16.5754 270.031 16.7661 271.087 17.1474C272.172 17.4994 273.067 18.0568 273.771 18.8194C274.504 19.5821 275.076 20.5501 275.487 21.7234C275.927 22.8674 276.22 24.2168 276.367 25.7714L272.143 26.9154C272.055 25.7421 271.879 24.6714 271.615 23.7034C271.351 22.7061 270.881 21.9141 270.207 21.3274C269.561 20.7114 268.623 20.4034 267.391 20.4034C266.159 20.4034 265.191 20.7408 264.487 21.4154C263.812 22.0608 263.475 23.0288 263.475 24.3194C263.475 25.4048 263.651 26.2994 264.003 27.0034C264.384 27.7074 264.985 28.4261 265.807 29.1594L271.835 34.4394C273.184 35.6128 274.372 37.0208 275.399 38.6634C276.425 40.2768 276.939 42.1981 276.939 44.4274C276.939 46.1874 276.572 47.7128 275.839 49.0034C275.105 50.2648 274.093 51.2328 272.803 51.9074C271.541 52.5821 270.075 52.9194 268.403 52.9194ZM284.711 52.5234V20.5794H278.683V16.8834H295.535V20.5794H289.683V52.5234H284.711ZM299.235 52.5234V16.8834H304.119V52.5234H299.235ZM309.885 52.5234V16.8834H317.057C319.433 16.8834 321.399 17.2061 322.953 17.8514C324.508 18.4674 325.652 19.4794 326.385 20.8874C327.148 22.2661 327.529 24.0848 327.529 26.3434C327.529 27.7221 327.383 28.9834 327.089 30.1274C326.796 31.2421 326.327 32.1954 325.681 32.9874C325.036 33.7501 324.185 34.3074 323.129 34.6594L328.189 52.5234H323.393L318.729 35.8034H314.857V52.5234H309.885ZM314.857 32.2394H316.749C318.157 32.2394 319.301 32.0634 320.181 31.7114C321.061 31.3594 321.707 30.7581 322.117 29.9074C322.528 29.0568 322.733 27.8688 322.733 26.3434C322.733 24.2608 322.352 22.7648 321.589 21.8554C320.827 20.9168 319.316 20.4474 317.057 20.4474H314.857V32.2394ZM332.702 52.5234V16.8834H339.874C342.25 16.8834 344.215 17.2061 345.77 17.8514C347.324 18.4674 348.468 19.4794 349.202 20.8874C349.964 22.2661 350.346 24.0848 350.346 26.3434C350.346 27.7221 350.199 28.9834 349.906 30.1274C349.612 31.2421 349.143 32.1954 348.498 32.9874C347.852 33.7501 347.002 34.3074 345.946 34.6594L351.006 52.5234H346.21L341.546 35.8034H337.674V52.5234H332.702ZM337.674 32.2394H339.566C340.974 32.2394 342.118 32.0634 342.998 31.7114C343.878 31.3594 344.523 30.7581 344.934 29.9074C345.344 29.0568 345.55 27.8688 345.55 26.3434C345.55 24.2608 345.168 22.7648 344.406 21.8554C343.643 20.9168 342.132 20.4474 339.874 20.4474H337.674V32.2394ZM355.518 52.5234V16.8834H369.334V20.5794H360.49V32.3714H367.662V35.8914H360.49V48.9594H369.422V52.5234H355.518ZM373.436 52.5234V16.8834H381.18C383.82 16.8834 385.903 17.2941 387.428 18.1154C388.983 18.9074 390.083 20.1101 390.728 21.7234C391.403 23.3368 391.74 25.3461 391.74 27.7514V40.8634C391.74 43.3861 391.403 45.5128 390.728 47.2434C390.083 48.9741 389.012 50.2941 387.516 51.2034C386.049 52.0834 384.069 52.5234 381.576 52.5234H373.436ZM378.408 48.9594H381.224C383.043 48.9594 384.333 48.6074 385.096 47.9034C385.859 47.1994 386.313 46.1728 386.46 44.8234C386.636 43.4741 386.724 41.8461 386.724 39.9394V28.3674C386.724 26.5194 386.607 25.0234 386.372 23.8794C386.137 22.7354 385.624 21.8994 384.832 21.3714C384.04 20.8434 382.793 20.5794 381.092 20.5794H378.408V48.9594Z" fill="white"/>
<path d="M149.699 78.5234V69.4234H153.625C154.639 69.4234 155.423 69.6271 155.978 70.0344C156.541 70.4418 156.823 71.0181 156.823 71.7634C156.823 72.2574 156.706 72.6734 156.472 73.0114C156.246 73.3494 155.934 73.6051 155.536 73.7784C155.146 73.9518 154.717 74.0384 154.249 74.0384L154.47 73.7264C155.05 73.7264 155.549 73.8174 155.965 73.9994C156.389 74.1728 156.719 74.4371 156.953 74.7924C157.187 75.1391 157.304 75.5724 157.304 76.0924C157.304 76.8638 157.018 77.4618 156.446 77.8864C155.882 78.3111 155.029 78.5234 153.885 78.5234H149.699ZM150.661 77.7304H153.872C154.669 77.7304 155.28 77.5961 155.705 77.3274C156.129 77.0501 156.342 76.6124 156.342 76.0144C156.342 75.4251 156.129 74.9961 155.705 74.7274C155.28 74.4501 154.669 74.3114 153.872 74.3114H150.557V73.5184H153.56C154.288 73.5184 154.851 73.3798 155.25 73.1024C155.657 72.8251 155.861 72.4134 155.861 71.8674C155.861 71.3128 155.657 70.9011 155.25 70.6324C154.851 70.3551 154.288 70.2164 153.56 70.2164H150.661V77.7304ZM158.044 78.5234L162.204 69.4234H163.153L167.313 78.5234H166.299L162.477 69.9824H162.867L159.045 78.5234H158.044ZM159.682 76.0924L159.968 75.3124H165.259L165.545 76.0924H159.682ZM168.818 78.5234V69.4234H172.224C172.995 69.4234 173.658 69.5491 174.213 69.8004C174.768 70.0431 175.192 70.3984 175.487 70.8664C175.79 71.3258 175.942 71.8848 175.942 72.5434C175.942 73.1848 175.79 73.7394 175.487 74.2074C175.192 74.6668 174.768 75.0221 174.213 75.2734C173.658 75.5161 172.995 75.6374 172.224 75.6374H169.351L169.78 75.1954V78.5234H168.818ZM175.032 78.5234L172.692 75.2214H173.732L176.085 78.5234H175.032ZM169.78 75.2734L169.351 74.8184H172.198C173.108 74.8184 173.797 74.6191 174.265 74.2204C174.742 73.8218 174.98 73.2628 174.98 72.5434C174.98 71.8154 174.742 71.2521 174.265 70.8534C173.797 70.4548 173.108 70.2554 172.198 70.2554H169.351L169.78 69.8004V75.2734ZM179.854 78.5234V70.2554H176.656V69.4234H184.014V70.2554H180.816V78.5234H179.854ZM186.408 73.4924H191.218V74.3114H186.408V73.4924ZM186.512 77.6914H191.985V78.5234H185.55V69.4234H191.79V70.2554H186.512V77.6914ZM194.247 78.5234V69.4234H195.04L201.319 77.3274H200.903V69.4234H201.852V78.5234H201.059L194.793 70.6194H195.209V78.5234H194.247ZM204.822 78.5234V69.4234H208.527C209.498 69.4234 210.347 69.6184 211.075 70.0084C211.812 70.3898 212.384 70.9228 212.791 71.6074C213.198 72.2921 213.402 73.0808 213.402 73.9734C213.402 74.8661 213.198 75.6548 212.791 76.3394C212.384 77.0241 211.812 77.5614 211.075 77.9514C210.347 78.3328 209.498 78.5234 208.527 78.5234H204.822ZM205.784 77.6914H208.475C209.281 77.6914 209.979 77.5354 210.568 77.2234C211.166 76.9028 211.63 76.4651 211.959 75.9104C212.288 75.3471 212.453 74.7014 212.453 73.9734C212.453 73.2368 212.288 72.5911 211.959 72.0364C211.63 71.4818 211.166 71.0484 210.568 70.7364C209.979 70.4158 209.281 70.2554 208.475 70.2554H205.784V77.6914ZM215.562 78.5234V69.4234H216.524V78.5234H215.562ZM219.485 78.5234V69.4234H220.278L226.557 77.3274H226.141V69.4234H227.09V78.5234H226.297L220.031 70.6194H220.447V78.5234H219.485ZM234.051 78.6014C233.358 78.6014 232.716 78.4888 232.127 78.2634C231.546 78.0294 231.039 77.7044 230.606 77.2884C230.181 76.8724 229.848 76.3828 229.605 75.8194C229.371 75.2561 229.254 74.6408 229.254 73.9734C229.254 73.3061 229.371 72.6908 229.605 72.1274C229.848 71.5641 230.186 71.0744 230.619 70.6584C231.052 70.2424 231.559 69.9218 232.14 69.6964C232.729 69.4624 233.371 69.3454 234.064 69.3454C234.757 69.3454 235.39 69.4538 235.962 69.6704C236.543 69.8871 237.037 70.2164 237.444 70.6584L236.846 71.2694C236.465 70.8881 236.044 70.6151 235.585 70.4504C235.126 70.2858 234.632 70.2034 234.103 70.2034C233.54 70.2034 233.02 70.2988 232.543 70.4894C232.075 70.6714 231.663 70.9358 231.308 71.2824C230.961 71.6204 230.688 72.0191 230.489 72.4784C230.298 72.9291 230.203 73.4274 230.203 73.9734C230.203 74.5108 230.298 75.0091 230.489 75.4684C230.688 75.9278 230.961 76.3308 231.308 76.6774C231.663 77.0154 232.075 77.2798 232.543 77.4704C233.02 77.6524 233.535 77.7434 234.09 77.7434C234.61 77.7434 235.1 77.6654 235.559 77.5094C236.027 77.3534 236.456 77.0891 236.846 76.7164L237.392 77.4444C236.959 77.8258 236.452 78.1161 235.871 78.3154C235.29 78.5061 234.684 78.6014 234.051 78.6014ZM236.469 77.3274V73.9734H237.392V77.4444L236.469 77.3274ZM246.026 78.6014C245.35 78.6014 244.7 78.4931 244.076 78.2764C243.461 78.0511 242.984 77.7651 242.646 77.4184L243.023 76.6774C243.344 76.9894 243.773 77.2538 244.31 77.4704C244.856 77.6784 245.428 77.7824 246.026 77.7824C246.598 77.7824 247.062 77.7131 247.417 77.5744C247.781 77.4271 248.045 77.2321 248.21 76.9894C248.383 76.7468 248.47 76.4781 248.47 76.1834C248.47 75.8281 248.366 75.5421 248.158 75.3254C247.959 75.1088 247.694 74.9398 247.365 74.8184C247.036 74.6884 246.672 74.5758 246.273 74.4804C245.874 74.3851 245.476 74.2854 245.077 74.1814C244.678 74.0688 244.31 73.9214 243.972 73.7394C243.643 73.5574 243.374 73.3191 243.166 73.0244C242.967 72.7211 242.867 72.3268 242.867 71.8414C242.867 71.3908 242.984 70.9791 243.218 70.6064C243.461 70.2251 243.829 69.9218 244.323 69.6964C244.817 69.4624 245.45 69.3454 246.221 69.3454C246.732 69.3454 247.239 69.4191 247.742 69.5664C248.245 69.7051 248.678 69.9001 249.042 70.1514L248.717 70.9184C248.327 70.6584 247.911 70.4678 247.469 70.3464C247.036 70.2251 246.615 70.1644 246.208 70.1644C245.662 70.1644 245.211 70.2381 244.856 70.3854C244.501 70.5328 244.236 70.7321 244.063 70.9834C243.898 71.2261 243.816 71.5034 243.816 71.8154C243.816 72.1708 243.916 72.4568 244.115 72.6734C244.323 72.8901 244.592 73.0591 244.921 73.1804C245.259 73.3018 245.627 73.4101 246.026 73.5054C246.425 73.6008 246.819 73.7048 247.209 73.8174C247.608 73.9301 247.972 74.0774 248.301 74.2594C248.639 74.4328 248.908 74.6668 249.107 74.9614C249.315 75.2561 249.419 75.6418 249.419 76.1184C249.419 76.5604 249.298 76.9721 249.055 77.3534C248.812 77.7261 248.44 78.0294 247.937 78.2634C247.443 78.4888 246.806 78.6014 246.026 78.6014ZM252.373 73.4924H257.183V74.3114H252.373V73.4924ZM252.477 77.6914H257.95V78.5234H251.515V69.4234H257.755V70.2554H252.477V77.6914ZM260.211 78.5234V69.4234H263.617C264.389 69.4234 265.052 69.5491 265.606 69.8004C266.161 70.0431 266.586 70.3984 266.88 70.8664C267.184 71.3258 267.335 71.8848 267.335 72.5434C267.335 73.1848 267.184 73.7394 266.88 74.2074C266.586 74.6668 266.161 75.0221 265.606 75.2734C265.052 75.5161 264.389 75.6374 263.617 75.6374H260.744L261.173 75.1954V78.5234H260.211ZM266.425 78.5234L264.085 75.2214H265.125L267.478 78.5234H266.425ZM261.173 75.2734L260.744 74.8184H263.591C264.501 74.8184 265.19 74.6191 265.658 74.2204C266.135 73.8218 266.373 73.2628 266.373 72.5434C266.373 71.8154 266.135 71.2521 265.658 70.8534C265.19 70.4548 264.501 70.2554 263.591 70.2554H260.744L261.173 69.8004V75.2734ZM272.193 78.5234L268.163 69.4234H269.203L272.973 77.9904H272.401L276.197 69.4234H277.172L273.142 78.5234H272.193ZM278.493 78.5234V69.4234H279.455V78.5234H278.493ZM286.368 78.6014C285.683 78.6014 285.05 78.4888 284.47 78.2634C283.889 78.0294 283.386 77.7044 282.962 77.2884C282.537 76.8724 282.203 76.3828 281.961 75.8194C281.727 75.2561 281.61 74.6408 281.61 73.9734C281.61 73.3061 281.727 72.6908 281.961 72.1274C282.203 71.5641 282.537 71.0744 282.962 70.6584C283.395 70.2424 283.902 69.9218 284.483 69.6964C285.063 69.4624 285.696 69.3454 286.381 69.3454C287.039 69.3454 287.659 69.4581 288.24 69.6834C288.82 69.9001 289.31 70.2294 289.709 70.6714L289.098 71.2824C288.725 70.9011 288.313 70.6281 287.863 70.4634C287.412 70.2901 286.927 70.2034 286.407 70.2034C285.861 70.2034 285.354 70.2988 284.886 70.4894C284.418 70.6714 284.01 70.9358 283.664 71.2824C283.317 71.6204 283.044 72.0191 282.845 72.4784C282.654 72.9291 282.559 73.4274 282.559 73.9734C282.559 74.5194 282.654 75.0221 282.845 75.4814C283.044 75.9321 283.317 76.3308 283.664 76.6774C284.01 77.0154 284.418 77.2798 284.886 77.4704C285.354 77.6524 285.861 77.7434 286.407 77.7434C286.927 77.7434 287.412 77.6568 287.863 77.4834C288.313 77.3101 288.725 77.0328 289.098 76.6514L289.709 77.2624C289.31 77.7044 288.82 78.0381 288.24 78.2634C287.659 78.4888 287.035 78.6014 286.368 78.6014ZM292.617 73.4924H297.427V74.3114H292.617V73.4924ZM292.721 77.6914H298.194V78.5234H291.759V69.4234H297.999V70.2554H292.721V77.6914ZM302.965 78.6014C302.289 78.6014 301.639 78.4931 301.015 78.2764C300.399 78.0511 299.923 77.7651 299.585 77.4184L299.962 76.6774C300.282 76.9894 300.711 77.2538 301.249 77.4704C301.795 77.6784 302.367 77.7824 302.965 77.7824C303.537 77.7824 304 77.7131 304.356 77.5744C304.72 77.4271 304.984 77.2321 305.149 76.9894C305.322 76.7468 305.409 76.4781 305.409 76.1834C305.409 75.8281 305.305 75.5421 305.097 75.3254C304.897 75.1088 304.633 74.9398 304.304 74.8184C303.974 74.6884 303.61 74.5758 303.212 74.4804C302.813 74.3851 302.414 74.2854 302.016 74.1814C301.617 74.0688 301.249 73.9214 300.911 73.7394C300.581 73.5574 300.313 73.3191 300.105 73.0244C299.905 72.7211 299.806 72.3268 299.806 71.8414C299.806 71.3908 299.923 70.9791 300.157 70.6064C300.399 70.2251 300.768 69.9218 301.262 69.6964C301.756 69.4624 302.388 69.3454 303.16 69.3454C303.671 69.3454 304.178 69.4191 304.681 69.5664C305.183 69.7051 305.617 69.9001 305.981 70.1514L305.656 70.9184C305.266 70.6584 304.85 70.4678 304.408 70.3464C303.974 70.2251 303.554 70.1644 303.147 70.1644C302.601 70.1644 302.15 70.2381 301.795 70.3854C301.439 70.5328 301.175 70.7321 301.002 70.9834C300.837 71.2261 300.755 71.5034 300.755 71.8154C300.755 72.1708 300.854 72.4568 301.054 72.6734C301.262 72.8901 301.53 73.0591 301.86 73.1804C302.198 73.3018 302.566 73.4101 302.965 73.5054C303.363 73.6008 303.758 73.7048 304.148 73.8174C304.546 73.9301 304.91 74.0774 305.24 74.2594C305.578 74.4328 305.846 74.6668 306.046 74.9614C306.254 75.2561 306.358 75.6418 306.358 76.1184C306.358 76.5604 306.236 76.9721 305.994 77.3534C305.751 77.7261 305.378 78.0294 304.876 78.2634C304.382 78.4888 303.745 78.6014 302.965 78.6014Z" fill="white"/>
<path d="M29.0881 32.6128C28.6928 32.9865 28.0714 32.9757 27.6894 32.5886L12.1695 16.8631C11.5459 16.2312 11.9935 15.1606 12.8812 15.1606L45.0363 15.1606C45.9408 15.1606 46.3805 16.2659 45.7232 16.8873L29.0881 32.6128Z" fill="#FFDA55"/>
<rect x="27.2773" y="36.9771" width="3" height="31.8006" rx="1" fill="white"/>
<rect x="13.3359" y="77.6416" width="19.3401" height="3" rx="1.5" transform="rotate(-35 13.3359 77.6416)" fill="white"/>
<rect x="14.1689" y="77.0991" width="32.319" height="3" rx="1.5" fill="white"/>
<rect x="0.493164" y="12.3735" width="3" height="40" rx="1.5" transform="rotate(-45 0.493164 12.3735)" fill="white"/>
<rect x="55.3203" y="9.30713" width="3" height="40" rx="1.5" transform="rotate(45 55.3203 9.30713)" fill="white"/>
<path d="M13.9912 0.98584L14.7171 0.523408L30.5992 25.5987L30.6818 26.2934L30.046 25.9331L13.9912 0.98584Z" fill="url(#paint0_linear_84_616)"/>
<path d="M19.2627 15.1607C19.2627 12.7129 21.247 10.7285 23.6949 10.7285H23.8305C26.2783 10.7285 28.2627 12.7129 28.2627 15.1607H19.2627Z" fill="white"/>
<path d="M28.2627 15.1606C28.2627 17.6084 26.2783 19.5928 23.8305 19.5928L23.6949 19.5928C21.247 19.5928 19.2627 17.6084 19.2627 15.1606L28.2627 15.1606Z" fill="black"/>
<defs>
<linearGradient id="paint0_linear_84_616" x1="14.3541" y1="0.754624" x2="30.6408" y2="26.3195" gradientUnits="userSpaceOnUse">
<stop offset="0.588719" stop-color="white"/>
<stop offset="0.595631"/>
</linearGradient>
</defs>
</svg>
