<svg width="84" height="106" viewBox="0 0 84 106" fill="none" xmlns="http://www.w3.org/2000/svg">
<g clip-path="url(#clip0_4_16)" filter="url(#filter0_d_4_16)">
<path d="M22.5007 29.6465C20.4687 29.6465 18.8387 27.9942 18.8387 25.954L18.867 7.35373C18.867 6.37627 19.2533 5.44284 19.9395 4.75378C20.6258 4.06473 21.5555 3.67686 22.529 3.67686L62.9715 3.71949C63.9436 3.71949 64.8747 4.10735 65.561 4.79641C66.2472 5.48546 66.6335 6.42031 66.6335 7.39635L66.6053 26.0109C66.6053 28.0496 64.9596 29.6877 62.9432 29.6877C62.9276 29.7048 22.5007 29.6465 22.5007 29.6465Z" fill="white"/>
<path d="M22.529 7.36794L62.9559 7.41199L62.9276 26.0123L22.5007 25.9697L22.529 7.36794ZM22.529 0C20.5834 0 18.724 0.775722 17.3501 2.15384C15.9761 3.53337 15.2049 5.40022 15.1908 7.35374L15.1625 25.9398C15.1625 30.0045 18.4382 33.3078 22.4866 33.3078L62.9149 33.3518H62.929C64.8747 33.3518 66.734 32.5761 68.108 31.198C69.4806 29.8184 70.2532 27.9516 70.2687 25.9981L70.297 7.41199C70.297 3.34726 67.0213 0.0426221 62.9729 0.0426221L22.529 0Z" fill="#4C2F1B"/>
<path d="M17.4647 22.1479L5.66206 36.1521V96.3061H57.8774V36.1521L67.9056 22.1479H17.4647V22.1479Z" fill="white"/>
<path d="M57.8774 99.9844H5.66205C3.63151 99.9844 2 98.3335 2 96.3075V36.1535C2 35.2769 2.29998 34.4444 2.87306 33.7695L14.6757 19.7795C15.3775 18.947 16.3921 18.4724 17.4802 18.4724H67.9226C69.2952 18.4724 70.5545 19.2481 71.1842 20.4686C71.8139 21.7032 71.6993 23.1836 70.8984 24.3031L61.5565 37.3313V96.3075C61.5565 97.285 61.1702 98.2184 60.4839 98.9075C59.7806 99.6121 58.851 99.9844 57.8774 99.9844ZM9.33826 92.6306H54.2154V36.1535C54.2154 35.3778 54.4588 34.6305 54.9017 33.9997L60.7527 25.8418H19.1669L9.33826 37.5046V92.6306Z" fill="#4C2F1B"/>
<path d="M68.7646 21.8907L57.8774 37.3739V96.3075H80.3224V36.8141L68.7646 21.8907Z" fill="#EFEFEF"/>
<path d="M80.3238 100H57.8774C55.8469 100 54.2154 98.3477 54.2154 96.3231V37.3739C54.2154 36.6124 54.4446 35.8665 54.8875 35.2485L65.7746 19.7639C66.4468 18.8162 67.5193 18.2266 68.6924 18.2124C69.8654 18.1684 70.9522 18.7139 71.6682 19.6346L83.226 34.558C83.7269 35.2044 83.9986 35.9944 83.9986 36.8127V96.3061C83.9859 98.3477 82.3416 100 80.3238 100ZM61.5409 92.6306H76.6476V38.0772L68.9075 28.0794L61.5395 38.5503V92.6306H61.5409Z" fill="#4C2F1B"/>
<path d="M57.8774 37.6623H5.66206V67.5674H57.8774V37.6623Z" fill="#526FFF"/>
<path d="M57.8774 71.2429H5.66205C3.63151 71.2429 2 69.592 2 67.566V37.6623C2 35.6221 3.64566 33.9854 5.66205 33.9854H57.8774C59.9094 33.9854 61.5395 35.6378 61.5395 37.6623V67.5674C61.5409 69.6062 59.9094 71.2429 57.8774 71.2429ZM9.33826 63.8891H54.2154V41.3378H9.33826V63.8891Z" fill="#4C2F1B"/>
<path d="M23.644 46.7536H28.2655L31.8285 54.5535L35.3193 46.7252H39.8969V58.4747H37.1928V49.8707H36.9777L32.9011 58.4747H30.5691L26.5632 49.8707H26.3481V58.4889H23.6582V46.7536H23.644V46.7536Z" fill="white"/>
</g>
<defs>
<filter id="filter0_d_4_16" x="0" y="0" width="84" height="106" filterUnits="userSpaceOnUse" color-interpolation-filters="sRGB">
<feFlood flood-opacity="0" result="BackgroundImageFix"/>
<feColorMatrix in="SourceAlpha" type="matrix" values="0 0 0 0 0 0 0 0 0 0 0 0 0 0 0 0 0 0 127 0" result="hardAlpha"/>
<feOffset dx="-2" dy="6"/>
<feComposite in2="hardAlpha" operator="out"/>
<feColorMatrix type="matrix" values="0 0 0 0 0 0 0 0 0 0 0 0 0 0 0 0 0 0 0.25 0"/>
<feBlend mode="normal" in2="BackgroundImageFix" result="effect1_dropShadow_4_16"/>
<feBlend mode="normal" in="SourceGraphic" in2="effect1_dropShadow_4_16" result="shape"/>
</filter>
<clipPath id="clip0_4_16">
<rect width="82" height="100" fill="white" transform="translate(2)"/>
</clipPath>
</defs>
</svg>
