<svg width="441" height="421" viewBox="0 0 441 421" fill="none" xmlns="http://www.w3.org/2000/svg">
<g clip-path="url(#clip0_102_2)">
<path d="M44.2603 375.639C-6.07672 339.692 -11.6667 244.264 37.5451 207.215C86.7659 170.165 106.898 171.286 141.59 136.478C176.278 101.665 193.043 50.0019 235.553 21.9447C278.059 -6.10813 308.246 14.0865 319.448 11.8407C330.655 9.59483 344.059 1.73666 353.002 15.2116C361.949 28.6822 358.596 35.4241 363.07 45.5281C367.548 55.6321 388.801 110.639 363.07 146.582C337.348 182.528 286.998 209.469 272.451 244.264C257.909 279.059 244.894 352.095 181.845 382.372C142.501 401.285 94.5928 411.567 44.2603 375.639Z" fill="#FFDAA4"/>
<path d="M363.061 146.582C337.334 182.515 287.002 209.469 272.455 244.264C257.909 279.059 244.894 352.095 181.85 382.371C142.505 401.28 94.5971 411.567 44.2646 375.638C26.6016 363.03 14.4705 343.085 8.25989 320.912C14.2741 330.217 22.2215 341.679 31.0307 347.961C81.3632 383.89 130.213 363.467 165.392 337.629C206.598 307.335 212.858 269.071 227.4 234.272C241.942 199.477 320.109 151.506 345.84 115.573C371.562 79.6442 353.761 24.6235 349.282 14.5195C348.608 12.9881 348.055 11.403 347.635 9.77783C349.787 11.1843 351.618 13.0372 352.993 15.2116C361.949 28.6866 358.587 35.4241 363.061 45.5281C367.539 55.6321 388.792 110.653 363.061 146.582Z" fill="#F5A623"/>
<path d="M259.561 375.474C221.132 350.149 216.127 280.934 276.259 226.909C336.392 172.884 380.648 183.846 396.525 183.015C412.398 182.185 434.106 183.015 436.611 189.77C439.116 196.521 435.776 231.972 436.611 250.546C437.446 269.111 430.753 321.449 389.846 355.207C342.349 394.4 293.458 397.807 259.561 375.474Z" fill="#FC5E68"/>
<path d="M436.611 250.546C437.446 269.116 430.753 321.449 389.841 355.212C342.349 394.4 293.454 397.807 259.561 375.474C243.996 365.222 233.924 347.773 231.432 327.056C245.608 338.924 277.572 362.173 306.638 358.297C345.394 353.131 385.872 319.538 403.098 279.059C413.496 254.609 421.573 229.231 427.217 203.268C427.217 203.268 431.258 201.906 437.549 200.433C437.629 214.225 435.995 236.915 436.611 250.546Z" fill="#EF3151"/>
<path d="M440.027 249.363C440.888 268.553 433.986 322.632 391.694 357.525C342.616 398.017 292.096 401.539 257.069 378.461C245.046 370.317 236.098 358.373 231.66 344.545C219.23 362.007 202.625 376.076 183.359 385.47C149.252 401.848 108.862 411.8 66.0087 392.404H65.8345V392.333C57.4495 388.524 49.4574 383.912 41.9608 378.554C-9.77364 341.666 -15.5199 243.688 35.0715 205.652C85.663 167.611 106.326 168.763 141.961 133.031C177.586 97.2986 194.847 44.2737 238.54 15.4619C282.229 -13.3544 313.269 7.38942 324.761 5.08555C336.258 2.77721 350.055 -5.29082 359.257 8.52796C368.455 22.3467 365.003 29.2762 369.589 39.6526C374.179 50.029 396.034 106.505 369.589 143.394C356.431 161.753 337.035 177.831 319.006 193.749C358.141 174.184 386.435 180.225 398.588 179.577C414.988 178.702 437.424 179.577 440.013 186.551C442.603 193.53 439.16 230.178 440.027 249.363ZM356.511 139.469C372.321 117.824 370.571 89.0118 366.343 69.1609C365.454 75.7243 363.972 82.1939 361.909 88.4894C358.047 100.37 349.166 85.7345 351.694 78.363C354.886 69.2502 356.828 59.7445 357.462 50.1138L360.985 50.4888C360.601 49.4887 360.248 48.6181 359.954 47.9573C355.605 38.1167 356.225 32.9687 350.167 18.44C348.215 13.7519 343.688 12.8455 338.317 13.4661C338.317 13.4661 350.234 19.6053 345.246 25.7847C340.402 31.781 335.535 37.764 330.646 43.7246C324.449 51.3059 307.866 45.9882 317.93 34.9734C324.543 27.7225 331.262 20.5653 338.076 13.4974C331.441 14.31 323.516 17.4041 317.546 18.6096C315.591 18.8775 313.604 18.7704 311.688 18.2971C305.518 20.3643 299.539 22.9852 293.838 26.1374C285.6 30.6693 273.732 21.8779 286.734 15.8548C288.114 15.2119 289.48 14.6091 290.828 14.051C278.769 12.9794 263.102 15.0824 242.871 28.4502C201.531 55.7842 185.234 109.519 151.52 143.412C117.81 177.305 95.7938 177.59 46.9347 212.278C9.6307 238.755 5.14797 306.933 35.3886 347.93C35.0403 344.528 34.6697 340.009 34.5581 334.682C34.2455 320.096 48.4349 326.686 48.3144 335.669C48.1179 344.394 48.7117 353.122 50.0914 361.74L49.8413 363.146C50.7388 363.869 51.663 364.566 52.6006 365.262C54.784 363.539 57.6772 361.199 61.0526 358.369C72.0005 349.216 79.7917 364.463 72.1121 370.388C70.0806 371.96 68.3215 373.237 66.7498 374.295C71.487 376.934 76.4073 379.233 81.466 381.184C85.7121 380.751 89.9359 380.144 94.1373 379.367L96.9368 385.778C101.045 386.622 105.197 387.198 109.38 387.502C109.38 387.502 103.764 377.465 111.193 375.264C118.904 373.004 126.414 370.125 133.66 366.651C146.658 360.373 150.448 375.335 141.782 379.398C134.504 382.791 126.968 385.6 119.243 387.797C142.287 387.301 163.807 379.077 183.792 369.031C202.223 359.525 217.524 344.92 227.892 326.958C224.922 298.262 235.951 263.749 266.053 232.941C285.462 201.018 337.821 165.057 356.511 139.46V139.469ZM426.386 249.515C425.645 233.111 425.15 205.241 422.935 199.276C420.72 193.307 401.544 192.561 387.533 193.311C373.513 194.057 337.861 187.797 284.738 235.527C231.624 283.256 232.593 344.394 266.539 366.758C296.481 386.488 339.674 380.032 381.608 345.42C417.774 315.577 427.123 265.914 426.386 249.511V249.515ZM282.01 160.204C289.534 154.346 296.976 148.609 304.076 142.702C316.251 132.567 320.457 149.502 312.554 156.137C305.29 162.218 297.673 168.12 289.953 174.166C281.439 180.827 268.669 170.612 282.01 160.204ZM339.888 103.442C345.019 94.9545 358.726 98.8747 351.827 111.399C351.064 112.792 350.269 114.171 349.443 115.529C344.773 123.164 339.335 130.294 333.204 136.813C325.971 144.595 313.438 135.518 324.025 124.177C330.017 117.837 335.33 110.89 339.884 103.451L339.888 103.442ZM282.519 75.7957C288.413 68.5984 294.423 61.4858 300.539 54.4715C306.741 47.3366 322.654 53.5026 312.822 65.2051C307.339 71.7327 301.812 78.2246 296.244 84.6808C290.681 91.1192 274.46 85.6497 282.519 75.7957ZM250.252 115.346C256.235 107.894 262.262 100.478 268.33 93.0927C277.532 81.8724 286.493 95.8519 279.979 103.29C273.996 110.117 268.102 117.015 262.289 123.985C256.587 130.843 241.684 126.039 250.252 115.346ZM243.063 50.0959C246.581 45.7784 250.394 41.702 254.466 37.9024C257.034 35.5092 259.699 33.2187 262.45 31.0399C273.817 22.0208 278.487 35.8842 271.826 41.5948C270.638 42.6262 269.442 43.662 268.245 44.7917C263.677 49.069 259.458 53.6991 255.627 58.6462C249.872 66.0087 233.977 61.2001 243.063 50.0959ZM214.515 97.5039C218.846 88.784 223.217 80.274 227.99 72.139C235.366 59.5927 246.269 71.6836 241.737 79.5775C236.915 87.967 232.526 96.7628 228.115 105.742C223.511 115.096 207.759 111.073 214.515 97.5039ZM188.056 147.176C193.521 138.496 198.307 129.691 202.812 120.918C209.635 107.617 220.587 121.137 216.269 129.388C211.881 137.92 207.063 146.22 201.839 154.266C197.687 160.57 180.448 159.267 188.056 147.176ZM148.903 185.413C157.646 180.14 165.727 173.835 172.965 166.634C183.198 156.204 191.686 168.808 184.676 176.063C176.671 184.274 167.58 191.342 157.65 197.08C151.261 200.893 138.907 191.655 148.903 185.399V185.413ZM101.62 213.555C111.483 206.951 120.842 201.611 129.673 196.615C140.992 190.208 145.89 203.674 137.88 207.96C128.633 212.778 119.654 218.078 110.961 223.842C104.045 228.508 90.9092 220.721 101.62 213.555ZM84.7165 244.608C78.7648 250.109 73.4873 256.293 68.9867 263.03C63.9995 270.478 47.5777 267.62 54.9313 256.529C59.4989 249.64 64.8701 243.327 70.9334 237.719C74.5723 234.357 78.3094 231.111 82.1447 227.981C92.9274 219.176 96.7716 234.04 89.4269 240.384C87.8687 241.742 86.3104 243.135 84.7165 244.608ZM35.7636 310.661C37.0986 299.548 39.7909 288.641 43.7691 278.184C48.8412 265.088 60.4945 277.358 57.3245 285.689C54.2035 293.945 51.9175 302.491 50.4754 311.202C49.1627 319.046 34.3036 322.275 35.7636 310.661ZM112.934 330.963C110.925 333.187 108.885 335.41 106.818 337.629C101.04 343.827 95.8608 349.064 91.2396 353.538C84.0646 360.48 68.2322 352.667 79.5863 341.884C86.7837 335.129 93.5748 327.958 99.9283 320.399C110.626 307.474 120.078 323.007 112.926 330.963H112.934ZM145.845 290.605C141.313 296.673 136.647 302.683 131.857 308.625C124.32 317.966 107.474 311.309 118.341 297.419C122.927 291.547 127.485 285.649 131.999 279.724C143.412 264.749 152.712 281.39 145.836 290.605H145.845ZM191.32 336C184.381 347.528 175.295 357.623 164.557 365.731C152.203 375.152 149.055 358.404 156.913 352.14C164.95 345.782 172.018 338.286 177.894 329.892C186.841 317.051 196.338 327.637 191.32 336ZM213.658 287.614C210.733 296.061 207.402 304.362 203.665 312.483C197.562 325.735 187.971 313.327 192.137 304.509C195.454 297.463 198.388 290.248 200.933 282.89C206.188 267.821 216.743 278.814 213.658 287.614ZM233.035 233.647C227.789 244.943 223.418 256.623 219.944 268.584L207.505 261.834C210.711 249.319 215.082 237.134 220.565 225.44C227.552 211.537 236.848 225.976 233.035 233.647ZM245.787 144.457C240.541 151.19 235.415 158.016 230.414 164.928C224.431 173.197 209.492 169.634 218.122 157.552C223.637 149.85 229.043 142.555 234.455 135.478C243.34 123.856 251.761 136.777 245.787 144.457ZM150.596 254.944C156.369 247.135 162.075 239.282 167.714 231.383C177.546 217.605 186.047 231.794 180.751 239.947C175.385 248.238 169.924 256.462 164.365 264.624C157.235 275.059 140.139 269.089 150.596 254.944ZM212.957 190.052C208.501 196.7 204.129 203.402 199.839 210.157L195.722 216.618C189.86 225.824 176.313 219.377 185.198 206.304C189.101 200.571 192.86 194.936 196.392 189.485C198.49 186.252 200.562 183.096 202.616 180.019C211.331 166.937 218.908 181.149 212.957 190.034V190.052ZM242.733 194.481C248.095 188.864 253.73 183.511 259.61 178.443C270.544 168.946 276.496 184.765 269.504 190.726C263.539 195.762 257.793 201.049 252.279 206.572C250.859 208.005 249.51 209.447 248.229 210.894C240.733 219.368 227.481 211.675 238.714 198.879C239.996 197.41 241.34 195.941 242.733 194.468V194.481Z" fill="#440911"/>
<path d="M373.205 209.724C368.95 200.129 347.278 215.711 333.477 225.373C324.123 232.548 316.189 241.411 310.081 251.497C310.081 251.497 325.927 243.84 344.465 236.071C363.007 228.302 365.41 229.548 371.201 223.926C375.447 219.801 377.465 219.319 373.205 209.724Z" fill="white"/>
</g>
<defs>
<clipPath id="clip0_102_2">
<rect width="441" height="420.31" fill="white"/>
</clipPath>
</defs>
</svg>
